<svg width="82" height="27" viewBox="0 0 82 27" fill="none" xmlns="http://www.w3.org/2000/svg">
<path d="M0.104492 2.32924C0.135312 2.14359 0.132066 2.1155 0.14342 2.09366C1.21724 0.0202179 1.21724 0.0202179 3.63738 0.0202179C29.1494 0.0202179 54.6631 0.0202179 80.1752 0.0202179C80.4899 0.0202179 80.8062 0.0202179 81.2733 0.0202179C80.8224 0.780012 80.4785 1.454 80.0324 2.05466C79.8978 2.23719 79.4744 2.28868 79.1841 2.28868C74.1297 2.30272 69.0769 2.29804 64.0225 2.29804C56.6437 2.29804 49.2665 2.30584 41.8876 2.28244C41.2583 2.28088 40.9371 2.4681 40.637 2.99543C36.272 10.6667 31.8697 18.3192 27.5192 25.9983C27.0991 26.7394 26.6612 27.0389 25.7788 26.9828C24.4925 26.9001 23.1964 26.9609 21.7268 26.9609C26.4195 18.714 31.0457 10.584 35.7448 2.32612C23.7917 2.32924 11.9781 2.32924 0.104492 2.32924Z" fill="black"/>
</svg>
