<svg width="107" height="42" viewBox="0 0 107 42" fill="none" xmlns="http://www.w3.org/2000/svg">
<path d="M39.07 11.3756C39.07 12.3932 39.07 13.37 39.07 14.348C39.0712 17.8088 39.0676 21.2684 39.0785 24.7292C39.0821 25.7744 39.5424 26.5928 40.4846 27.0752C41.4244 27.5564 42.3667 27.4748 43.2253 26.858C43.9423 26.342 44.2851 25.6052 44.2875 24.7376C44.2984 21.6368 44.2996 18.5372 44.2887 15.4364C44.2851 14.4692 43.757 14.2028 42.6707 14.5784C42.6028 12.818 43.9762 11.2988 45.7759 11.1428C47.5708 10.9868 49.3197 12.302 49.4819 14.0372C49.5909 15.2072 49.5413 16.394 49.5425 17.5724C49.5449 19.8128 49.5316 22.0532 49.5255 24.2924C49.5243 24.9464 49.6382 25.5632 50.0972 26.0768C50.6882 26.738 51.5869 27.0164 52.3959 26.7404C53.3078 26.4284 53.8977 25.826 54.0018 24.8396C54.0297 24.5816 54.0248 24.32 54.0248 24.0608C54.026 20.18 54.026 16.3004 54.026 12.4196C54.026 12.182 54.026 11.9444 54.026 11.6552C55.7882 11.6552 57.5068 11.6552 59.2956 11.6552C59.2956 11.8964 59.2956 12.1304 59.2956 12.3644C59.2956 16.4048 59.2907 20.4452 59.2992 24.4856C59.3016 25.5548 59.9459 26.444 60.9197 26.792C61.8547 27.1256 62.9422 26.84 63.6156 26.078C64.0661 25.5692 64.2103 24.9668 64.2066 24.302C64.1957 22.2824 64.203 20.2616 64.203 18.242C64.203 13.2812 64.203 8.32156 64.203 3.36076C64.203 2.04436 63.8445 1.63876 62.5099 1.47676C62.5099 1.09516 62.5099 0.707558 62.5099 0.309158C64.8158 0.309158 67.1048 0.309158 69.4616 0.309158C69.4616 0.605558 69.4616 0.839558 69.4616 1.07356C69.4616 9.17476 69.4604 17.2748 69.4629 25.376C69.4629 26.4632 69.9582 27.2144 70.8241 27.47C72.1212 27.8528 73.3324 27.0632 73.3929 25.7228C73.4523 24.4256 73.4099 23.1236 73.422 21.824C73.4377 20.0576 73.6 18.3116 74.2346 16.64C75.0194 14.5712 76.2318 12.8348 78.304 11.8628C81.1634 10.5224 83.7976 11.0636 86.2113 12.9596C87.0797 13.6424 87.8814 14.4116 88.7704 15.0644C89.7732 15.8012 90.9468 15.716 91.8793 14.894C92.2366 14.5784 92.5151 14.1752 92.8385 13.8212C93.1752 13.4528 93.478 13.0376 93.8728 12.7424C95.1735 11.7692 96.8388 11.8724 98.0197 12.9728C98.2425 13.1816 98.3866 13.238 98.6858 13.0916C101.218 11.8496 104.056 12.3716 106.024 14.45C105.254 15.7124 104.476 16.9892 103.686 18.284C103.324 18.0716 102.996 17.8496 102.642 17.6768C100.74 16.7468 98.4774 18.02 98.4447 20.1188C98.3902 23.618 98.4072 27.1196 98.4593 30.6188C98.4823 32.198 99.0866 33.578 100.34 34.6244C101.182 35.3276 101.182 35.3276 100.672 36.4136C97.4456 34.9604 94.0375 34.16 90.4793 33.7772C90.4793 33.5072 90.4756 33.2912 90.4805 33.074C90.4841 32.9384 90.5023 32.8028 90.5156 32.6492C90.6391 32.6324 90.736 32.6156 90.8329 32.6072C92.411 32.4788 93.1243 31.7468 93.1365 30.182C93.1582 27.3416 93.1704 24.5012 93.1595 21.662C93.1534 20.084 91.7509 19.184 90.4454 19.8908C89.9137 20.1788 89.5879 20.6312 89.554 21.2324C89.5019 22.1504 89.5055 23.0708 89.4583 23.9888C89.3651 25.8056 88.9702 27.554 88.0958 29.1644C87.0615 31.0688 85.5924 32.504 83.427 33.0716C80.8618 33.7436 78.5571 33.2264 76.5733 31.4444C76.4534 31.3376 76.3408 31.2224 76.2257 31.1096C76.1264 31.0124 76.0295 30.9116 75.9181 30.7976C72.4434 33.2636 69.1419 32.9792 65.9591 30.1652C64.0298 31.784 61.8086 32.2004 59.4397 31.5104C59.2265 32.7416 59.1224 33.944 58.7978 35.0864C58.0869 37.5932 56.7813 39.7028 54.3094 40.8944C51.6377 42.182 48.398 41.7008 46.459 39.7292C46.2386 39.506 46.0545 39.2468 45.8147 38.9564C46.4227 39.062 46.9435 39.2048 47.4715 39.236C49.5364 39.362 51.0709 38.378 52.2941 36.8432C53.584 35.2244 54.1011 33.3572 54.0151 31.2176C52.7132 31.5548 51.4597 31.8476 50.1347 31.6472C48.8074 31.4468 47.7065 30.8324 46.6237 30.0368C45.3448 31.2848 43.8442 32.0768 42.0397 32.2304C40.2387 32.3828 38.605 31.9208 37.062 30.8792C35.7843 32.2652 34.1917 33.1004 32.3132 33.3656C30.4239 33.6308 28.6702 33.212 27.0158 32.2208C26.1426 33.2756 25.1011 34.1204 23.7931 34.4828C22.5771 34.82 21.3151 35.0144 20.0628 35.198C16.7577 35.6816 13.6621 36.6488 11.0522 38.8196C11.0243 38.8424 10.9771 38.8424 10.9105 38.8604C10.6586 38.5664 10.3994 38.264 10.1184 37.9376C10.426 37.6676 10.7143 37.4216 10.994 37.166C12.9875 35.348 13.8644 33.0476 13.8729 30.4124C13.8934 23.612 13.8825 16.8116 13.8825 10.0112C13.8825 9.89356 13.8607 9.77716 13.8438 9.59716C13.6391 9.58756 13.4465 9.56596 13.254 9.57196C11.4991 9.62716 9.74418 9.68716 7.98928 9.74356C6.79996 9.78196 6.1278 10.2884 5.99579 11.2532C5.84803 12.3296 6.38213 13.0604 7.56054 13.3928C7.63684 13.4144 7.71435 13.4276 7.78339 13.4864C5.82744 13.9748 3.98171 13.7792 2.4218 12.4124C0.938186 11.1116 0.68022 9.40156 1.25429 7.63276C1.88164 5.69956 3.43065 4.74316 5.40355 4.54876C6.78543 4.41196 8.18548 4.45756 9.57825 4.42396C16.6499 4.25356 23.6598 3.51556 30.6044 2.17516C31.549 1.99276 32.4913 1.80076 33.4371 1.61356C33.7956 3.90436 32.6051 6.52276 30.0339 7.36756C28.4026 7.90276 26.6731 8.17276 24.9691 8.44756C23.1996 8.73316 21.4108 8.90236 19.6256 9.07516C19.0673 9.12916 19.1121 9.45076 19.1121 9.81916C19.1097 15.2396 19.1049 20.66 19.1012 26.0804C19.1012 26.72 19.0879 27.3608 19.1024 28.0004C19.1339 29.3948 20.075 30.3392 21.4096 30.3356C22.6377 30.3332 23.5666 29.3528 23.5835 27.9956C23.6041 26.4152 23.5751 24.8348 23.5993 23.2556C23.6247 21.548 23.8815 19.8716 24.4531 18.254C25.7926 14.4608 29.1098 12.0848 33.1671 11.9672C34.6761 11.9228 36.1852 11.8328 37.6906 11.7188C38.1399 11.6864 38.5783 11.5028 39.07 11.3756Z" fill="black"/>
</svg>
